<svg viewBox="0 0 64 64" xmlns="http://www.w3.org/2000/svg" xml:space="preserve" style="fill-rule:evenodd;clip-rule:evenodd;stroke-linecap:round;stroke-linejoin:round;stroke-miterlimit:2"><path style="fill:none" d="M0 0h64v64H0z"/><path d="m10.182 39.227 2.351-2.35a1.816 1.816 0 0 1 2.571 0l1.065 1.065a1.817 1.817 0 0 0 2.571 0l1.065-1.065a1.82 1.82 0 0 1 2.572 0l1.065 1.065a1.816 1.816 0 0 0 2.571 0l1.065-1.065a1.818 1.818 0 0 1 2.571 0l1.065 1.065a1.819 1.819 0 0 0 2.572 0l1.065-1.065a1.817 1.817 0 0 1 1.285-.533M46.803 39.227s2.897-2.883 3.379-2.883c.482 0 .945.192 1.285.533l2.351 2.35M12.909 44h38.182M12.909 31h38.182M32 31.045l6.697 8.182 6.697-8.182M52.909 52.75a3.75 3.75 0 0 0-3.75-3.75H14.841a3.75 3.75 0 0 0-3.75 3.75s0 0 0 0a3.75 3.75 0 0 0 3.75 3.75h34.318a3.75 3.75 0 0 0 3.75-3.75s0 0 0 0zM52 23.89C52 14.286 44.214 6.5 34.61 6.5h-5.22C19.786 6.5 12 14.286 12 23.89v.001c0 1.19.964 2.154 2.154 2.154h35.692c1.19 0 2.154-.964 2.154-2.154v-.001z" style="fill:none;stroke:#444f58;stroke-width:2px"/><circle cx="22" cy="22.409" r="1.364" style="fill:#444f58"/><circle cx="37" cy="13.773" r="1.364" style="fill:#444f58"/><circle cx="43.944" cy="21.045" r="1.364" style="fill:#444f58"/><circle cx="22" cy="14.682" r="1.364" style="fill:#444f58"/></svg>