<svg viewBox="0 0 64 64" xmlns="http://www.w3.org/2000/svg" xml:space="preserve" style="fill-rule:evenodd;clip-rule:evenodd;stroke-linecap:round;stroke-linejoin:round;stroke-miterlimit:2"><path style="fill:none" d="M0 0h64v64H0z"/><path d="M28.05 14.825c-.844.218-1.71.47-2.599.759a9.996 9.996 0 0 0-6.026 5.314c-2.564 5.495-7.36 15.826-10.007 21.527a1.659 1.659 0 0 0 2.185 2.214l10.005-4.485.596 1.828a2.158 2.158 0 0 0 2.764 1.368l.001-.001a2.146 2.146 0 0 0 1.421-1.755l.369-2.901s12.934-1.697 14.115-2.325c6.565-3.491 11.696-3.82 14.201-5.24a2.31 2.31 0 0 0 .872-1.808C56 27.667 56 24.737 56 24.737s-6.239-12.913-23.311-10.805" style="fill:none;stroke:#444f58;stroke-width:2px"/><path d="M11.221 44.81v9.337a1.582 1.582 0 0 0 2.182 1.463L52.84 39.403A3.486 3.486 0 0 0 55 36.18v-4.97" style="fill:none;stroke:#444f58;stroke-width:2px"/><circle cx="29.385" cy="21.921" r="4.226" style="fill:none;stroke:#444f58;stroke-width:2px"/><path d="M38.602 20.397a2.63 2.63 0 0 0-3.033 4.293 2.63 2.63 0 0 0 3.033-4.293zM28.926 17.695s-.766-1.332-.866-2.873c-.06-.93.123-1.937.866-2.772M38.835 20.562s2.231-1.033 2.026-2.867M56 24.511l-20.829 9.036" style="fill:none;stroke:#444f58;stroke-width:2px"/></svg>