<svg viewBox="0 0 64 64" xmlns="http://www.w3.org/2000/svg" xml:space="preserve" style="fill-rule:evenodd;clip-rule:evenodd;stroke-linecap:round;stroke-linejoin:round;stroke-miterlimit:2"><path style="fill:none" d="M0 0h64v64H0z"/><path d="M47.396 19.126H16.604l3.208 34.837A2.244 2.244 0 0 0 22.046 56h19.908a2.244 2.244 0 0 0 2.234-2.037l3.208-34.837zM50.026 14.706a2.242 2.242 0 0 0-2.242-2.242H16.216a2.242 2.242 0 0 0-2.242 2.242v2.177a2.242 2.242 0 0 0 2.242 2.243h31.568a2.242 2.242 0 0 0 2.242-2.243v-2.177z" style="fill:none;stroke:#444f58;stroke-width:2px"/><path d="M44.375 12.464h-24.75v-2.221A2.242 2.242 0 0 1 21.867 8h20.266a2.242 2.242 0 0 1 2.242 2.243v2.221zM30.939 34.844c.522 3.169 1.168 3.892-.284 8.142-.66 1.932-.426 3.759.117 5.268l-.117.018c-2.479 0-4.491-3.018-4.491-6.735 0-3.718 2.012-6.736 4.491-6.736l.284.043zM33.628 34.801c2.344.185 4.208 3.115 4.208 6.693 0 3.665-1.956 6.65-4.374 6.717-.543-1.509-.777-3.336-.117-5.268 1.452-4.25.805-4.973.283-8.142z" style="fill:none;stroke:#444f58;stroke-width:2px"/></svg>