<svg viewBox="0 0 64 64" xmlns="http://www.w3.org/2000/svg" xml:space="preserve" style="fill-rule:evenodd;clip-rule:evenodd;stroke-linecap:round;stroke-linejoin:round;stroke-miterlimit:2"><path style="fill:none" d="M0 0h64v64H0z"/><path d="M22.17 20.122a3.703 3.703 0 0 1-.75-1.737v-.001a4.337 4.337 0 0 1 3.639-4.946l12.385-1.885a4.345 4.345 0 0 1 4.946 3.639v.001a3.716 3.716 0 0 1-.285 2.09 6.51 6.51 0 0 1 3.57 5.647v.003a5.56 5.56 0 0 1-4.77 5.639l-4.594.656a30.696 30.696 0 0 1-8.689 0l-5.289-.755a4.67 4.67 0 0 1-4.004-4.834l.001-.002a3.52 3.52 0 0 1 2.771-3.282l1.069-.233z" style="fill:none;stroke:#444f58;stroke-width:2px"/><path d="M22.17 20.122C24.629 19.541 29 19.5 29 19.5M28.298 12.945s-1.187-2.374 1.27-4.405C32.025 6.51 32.108 6 32.108 6s3.66 3.198 3.387 5.85M43 28.142l-9.499 29.582a1.605 1.605 0 0 1-3.002 0l-9.498-29.705" style="fill:none;stroke:#444f58;stroke-width:2px"/><path d="M41.845 31.739s-2.385 1.5-9.72 1.5" style="fill:none;stroke:#444f58;stroke-width:2px"/></svg>