<svg viewBox="0 0 64 64" xmlns="http://www.w3.org/2000/svg" xml:space="preserve" style="fill-rule:evenodd;clip-rule:evenodd;stroke-linecap:round;stroke-linejoin:round;stroke-miterlimit:2"><path style="fill:none" d="M0 0h64v64H0z"/><path d="M10 45.64v2.257a1.58 1.58 0 0 0 2.168 1.468L22 45.431M25 44.231l29.259-11.705A2.77 2.77 0 0 0 56 29.954v-4.387" style="fill:none;stroke:#444f58;stroke-width:2px"/><path d="M11.603 45.469a1.662 1.662 0 0 1-2.185-2.215l10.293-22.171a8.375 8.375 0 0 1 4.875-4.394C47.827 8.651 56 25.567 56 25.567L29 37.67" style="fill:none;stroke:#444f58;stroke-width:2px"/><path d="M28.934 21.83c2.244 0 3.2 1.344 2.134 3-1.067 1.655-3.754 3-5.998 3s-3.2-1.345-2.134-3c1.067-1.656 3.754-3 5.998-3zM41.801 24.644c1.261 0 1.798.756 1.199 1.686-.599.93-2.109 1.685-3.369 1.685-1.261 0-1.798-.755-1.199-1.685s2.109-1.686 3.369-1.686zM22 43.18a1.535 1.535 0 0 0-2.165-1.402l-8.232 3.691a1.662 1.662 0 0 1-2.185-2.215l4.256-9.167a5.046 5.046 0 0 1 2.588-2.513h.001a1.843 1.843 0 0 1 2.439 1.01l.377.944a2.798 2.798 0 0 0 3.317 1.663l8.243-2.198a2.046 2.046 0 0 1 2.362 2.883l-.001.001-8.5 3.81v4.677a1.25 1.25 0 0 1-2.5 0V43.18z" style="fill:none;stroke:#444f58;stroke-width:2px"/></svg>